<svg width="777" height="765" viewBox="0 0 777 765" fill="none" xmlns="http://www.w3.org/2000/svg">
<g id="undraw_team_re_0bfe 1" clip-path="url(#clip0_2_2)">
<g id="Num7">
<path id="Vector" d="M227.495 650.61C227.495 673.046 220.842 694.979 208.377 713.634C195.912 732.289 178.195 746.829 157.466 755.415C136.738 764.001 113.929 766.247 91.9238 761.87C69.9185 757.493 49.7055 746.689 33.8406 730.824C17.9757 714.959 7.17162 694.746 2.79451 672.741C-1.5826 650.736 0.663906 627.927 9.24991 607.198C17.8359 586.47 32.3758 568.753 51.0309 556.288C69.686 543.823 91.6185 537.17 114.055 537.17C128.971 537.104 143.752 539.993 157.545 545.67C171.338 551.347 183.87 559.701 194.417 570.248C204.964 580.795 213.318 593.327 218.995 607.12C224.672 620.913 227.561 635.694 227.495 650.61V650.61Z" fill="#F2F2F2"/>
<path id="Vector_2" d="M160.449 623.467V623.467L159.888 624.479C164.884 612.166 160.341 596.994 151.429 587.71C142.516 578.426 130.127 574.181 117.927 572.497C108.87 571.247 99.4693 571.284 90.8578 574.601C78.3872 579.405 68.8595 590.526 60.9046 602.095C57.2659 607.386 53.6884 613.419 54.0509 620.033C54.3874 626.17 58.0305 631.379 61.014 636.586C63.9978 641.793 66.4893 648.254 64.348 653.937C63.072 657.324 60.3751 659.763 58.187 662.533C55.9988 665.304 54.1988 669.049 55.2558 672.525C55.725 673.855 56.5313 675.04 57.5958 675.965C58.6603 676.89 59.9465 677.524 61.3289 677.803C63.9742 678.419 66.7185 678.016 69.3976 677.612L138.937 667.105C143.662 666.391 148.145 664.545 152.003 661.724C155.86 658.904 158.979 655.192 161.092 650.905C163.205 646.619 164.25 641.885 164.138 637.107C164.026 632.33 162.761 627.65 160.449 623.467V623.467Z" fill="#2F2E41"/>
<path id="Vector_3" d="M142.285 638.067C145.293 619.533 132.705 602.069 114.171 599.061C95.6359 596.053 78.1721 608.64 75.1644 627.175C72.1566 645.71 84.7437 663.174 103.279 666.181C121.813 669.189 139.277 656.602 142.285 638.067Z" fill="#FFB9B9"/>
<path id="Vector_4" d="M199.235 725.51C179.582 747.872 151.923 761.609 122.229 763.755C92.5357 765.901 63.1891 756.284 40.5248 736.98L50.2548 709.83C52.4536 705.008 55.9235 700.875 60.2925 697.875C64.6614 694.875 69.7646 693.12 75.0548 692.8L81.2448 692.42L96.0048 679.69C96.0048 679.69 135.775 678.27 135.185 677.59L159.275 692.08L159.255 691.98L168.725 692.56C174.015 692.879 179.119 694.633 183.488 697.633C187.857 700.633 191.327 704.767 193.525 709.59L199.235 725.51Z" fill="#44C4FF"/>
<path id="Vector_5" d="M140.974 601.066C140.096 596.423 135.361 594.3 131.303 593.271C119.535 590.268 107.293 589.596 95.2672 591.292C86.5003 592.542 77.5253 595.299 71.1641 602.142C66.0349 607.904 63.1285 615.306 62.9674 623.019C62.708 627.63 63.7384 632.223 65.943 636.281C68.2323 640.156 72.134 642.966 76.1618 642.868L76.5698 644.286C93.6397 641.908 109.496 631.287 119.483 615.542C117.608 622.235 113.878 628.261 108.724 632.923C120.249 628.311 130.266 620.591 137.661 610.621C139.681 607.941 141.641 604.598 140.974 601.066Z" fill="#2F2E41"/>
</g>
<g id="Num5">
<path id="Vector_6" d="M382.63 487.411C445.281 487.411 496.07 436.622 496.07 373.971C496.07 311.319 445.281 260.531 382.63 260.531C319.979 260.531 269.19 311.319 269.19 373.971C269.19 436.622 319.979 487.411 382.63 487.411Z" fill="#F2F2F2"/>
<path id="Vector_7" d="M351.479 331.404C360.324 331.404 367.495 324.234 367.495 315.388C367.495 306.543 360.324 299.373 351.479 299.373C342.634 299.373 335.463 306.543 335.463 315.388C335.463 324.234 342.634 331.404 351.479 331.404Z" fill="#2F2E41"/>
<path id="Vector_8" d="M377.104 392.264C399.512 392.264 417.678 374.099 417.678 351.691C417.678 329.283 399.512 311.118 377.104 311.118C354.696 311.118 336.531 329.283 336.531 351.691C336.531 374.099 354.696 392.264 377.104 392.264Z" fill="#2F2E41"/>
<path id="Vector_9" d="M380.462 392.254C398.671 392.254 413.432 377.493 413.432 359.284C413.432 341.075 398.671 326.313 380.462 326.313C362.253 326.313 347.491 341.075 347.491 359.284C347.491 377.493 362.253 392.254 380.462 392.254Z" fill="#9E616A"/>
<path id="Vector_10" d="M402.852 325.675C397.075 322.153 390.457 320.248 383.691 320.158C376.925 320.069 370.26 321.799 364.391 325.168C358.523 328.537 353.668 333.42 350.333 339.307C346.998 345.195 345.306 351.87 345.433 358.635C362.233 362.853 379.883 366.081 397.799 359.644L402.03 349.289L404.525 359.652C409.981 361.882 415.451 363.769 420.921 359.63C421.145 352.884 419.593 346.198 416.422 340.239C413.251 334.28 408.572 329.258 402.852 325.675Z" fill="#2F2E41"/>
<path id="Vector_11" d="M336.567 271.912C325.492 266.834 311.596 269.216 302.375 277.179C293.153 285.141 288.769 298.101 290.55 310.153C292.366 322.449 299.841 333.037 306.731 343.382C313.621 353.726 320.353 365.061 320.345 377.49C320.339 386.442 316.784 395.027 310.458 401.361C304.132 407.695 295.553 411.263 286.601 411.28C297.107 415.804 308.074 420.415 319.5 419.879C330.926 419.343 342.903 411.997 344.767 400.711C346.11 392.579 342.12 384.65 338.793 377.109C333.373 364.822 329.455 351.925 327.125 338.7C326.013 332.387 325.29 325.751 327.348 319.681C328.986 315.183 332.027 311.331 336.022 308.692C340.016 306.053 344.753 304.768 349.533 305.026L353.309 301.629C354.988 289.562 347.642 276.989 336.567 271.912Z" fill="#2F2E41"/>
<path id="Vector_12" d="M467.985 449.871C448.332 472.233 420.673 485.97 390.98 488.116C361.286 490.262 331.939 480.645 309.275 461.341L319.005 434.191C321.204 429.368 324.674 425.236 329.043 422.236C333.412 419.235 338.515 417.481 343.805 417.161L349.995 416.781L364.755 404.051C364.755 404.051 404.525 402.631 403.935 401.951L428.025 416.441L428.005 416.341L437.475 416.921C442.766 417.24 447.869 418.993 452.238 421.994C456.608 424.994 460.077 429.128 462.275 433.951L467.985 449.871Z" fill="#44C4FF"/>
</g>
<g id="Num1">
<path id="Vector_13" d="M227.495 113.641C227.455 136.077 220.763 157.998 208.265 176.631C195.767 195.264 178.024 209.772 157.28 218.322C136.537 226.871 113.724 229.077 91.7265 224.661C69.7291 220.245 49.5352 209.405 33.6985 193.512C17.8618 177.619 7.09353 157.387 2.75545 135.374C-1.58263 113.361 0.7043 90.5558 9.32704 69.8426C17.9498 49.1294 32.521 31.4383 51.1982 19.0065C69.8754 6.57461 91.8196 -0.0396302 114.256 0.000147852C129.164 -0.012107 143.928 2.92188 157.698 8.63349C171.469 14.3451 183.975 22.7218 194.498 33.282C205.02 43.8423 213.353 56.378 219.015 70.1687C224.678 83.9594 227.56 98.7332 227.495 113.641V113.641Z" fill="#F2F2F2"/>
<path id="Vector_14" d="M61.4764 76.538C66.1671 61.589 76.8339 47.8782 91.5858 42.8246C106.339 37.771 127.94 45.4693 139.031 56.5226C159.319 76.7412 164.269 146.2 150.331 168.149C147.559 168.003 137.993 167.894 135.187 167.789L131.217 154.559V167.659C126.747 167.52 122.242 167.425 117.702 167.372C102.479 167.184 87.9227 161.1 77.0925 150.402C66.2623 139.703 60.002 125.222 59.6275 110.003C59.2643 95.4432 59.6279 82.4291 61.4764 76.538Z" fill="#2F2E41"/>
<path id="Vector_15" d="M112.372 126.083C130.227 126.083 144.702 111.608 144.702 93.7533C144.702 75.8981 130.227 61.4236 112.372 61.4236C94.5172 61.4236 80.0427 75.8981 80.0427 93.7533C80.0427 111.608 94.5172 126.083 112.372 126.083Z" fill="#9E616A"/>
<path id="Vector_16" d="M84.4709 65.36L121.695 46.7208C129.306 50.1502 135.86 55.5531 140.678 62.3692C145.497 69.1853 148.404 77.1665 149.099 85.4848L150.026 96.5986L134.439 92.6307L132.731 78.4195L130.084 91.5221L122.89 89.6918L122.959 67.629L115.76 89.676L90.0679 83.7732L84.4709 65.36Z" fill="#2F2E41"/>
<path id="Vector_17" d="M198.235 188.51C178.582 210.872 150.923 224.609 121.229 226.755C91.5357 228.901 62.1891 219.284 39.5248 199.98L49.2548 172.83C51.4536 168.008 54.9235 163.875 59.2925 160.875C63.6614 157.875 68.7646 156.12 74.0548 155.8L80.2448 155.42L95.0048 142.69C95.0048 142.69 134.775 141.27 134.185 140.59L158.275 155.08L158.255 154.98L167.725 155.56C173.015 155.879 178.119 157.633 182.488 160.633C186.857 163.633 190.327 167.767 192.525 172.59L198.235 188.51Z" fill="#44C4FF"/>
</g>
<g id="Num2">
<path id="Vector_18" d="M382.3 226.88C444.951 226.88 495.74 176.091 495.74 113.44C495.74 50.7888 444.951 0 382.3 0C319.649 0 268.86 50.7888 268.86 113.44C268.86 176.091 319.649 226.88 382.3 226.88Z" fill="#F2F2F2"/>
<path id="Vector_19" d="M386.924 125.012C407.353 125.012 423.914 108.45 423.914 88.0209C423.914 67.5914 407.353 51.0301 386.924 51.0301C366.494 51.0301 349.933 67.5914 349.933 88.0209C349.933 108.45 366.494 125.012 386.924 125.012Z" fill="#FFB8B8"/>
<path id="bf427902-b9bf-4946-b5d7-5c1c7e04535e" d="M419.493 63.5841C419.493 63.5841 429.124 45.1723 407.935 43.4985C407.935 43.4985 389.871 27.1125 371.46 40.5029C371.46 40.5029 361.417 40.5029 355.925 51.8675C355.925 51.8675 348.027 48.8719 346.291 56.8889C346.291 56.8889 340.511 73.6269 346.291 88.6911C352.07 103.755 353.99 105.429 353.99 105.429C353.99 105.429 349.935 86.7353 373.052 85.0614C396.169 83.3876 417.377 68.9059 419.303 87.3176C421.23 105.729 423.347 97.412 423.347 97.412C423.347 97.412 441.645 71.1162 419.493 63.5841Z" fill="#2F2E41"/>
<path id="Vector_20" d="M466.985 188.871C447.332 211.233 419.673 224.97 389.98 227.116C360.286 229.262 330.939 219.645 308.275 200.341L318.005 173.191C320.204 168.368 323.674 164.236 328.043 161.235C332.412 158.235 337.515 156.481 342.805 156.161L348.995 155.781L363.755 143.051C363.755 143.051 403.525 141.631 402.935 140.951L427.025 155.441L427.005 155.341L436.475 155.921C441.766 156.24 446.869 157.993 451.238 160.994C455.608 163.994 459.077 168.128 461.275 172.951L466.985 188.871Z" fill="#44C4FF"/>
</g>
<g id="Num3">
<path id="Vector_21" d="M658.78 226.88C721.431 226.88 772.22 176.091 772.22 113.44C772.22 50.7888 721.431 0 658.78 0C596.129 0 545.34 50.7888 545.34 113.44C545.34 176.091 596.129 226.88 658.78 226.88Z" fill="#F2F2F2"/>
<path id="Vector_22" d="M612.483 69.0685C610.926 77.4335 608.373 85.5819 604.879 93.3399C584.868 135.673 641.855 121.874 662.22 121.874C684.487 121.874 705.792 133.583 702.538 81.5572C701.148 59.334 684.487 41.24 662.22 41.24C643.201 41.24 616.46 49.6937 612.483 69.0685Z" fill="#2F2E41"/>
<path id="Vector_23" d="M658.884 121.864C676.979 121.864 691.647 107.196 691.647 89.1021C691.647 71.008 676.979 56.3399 658.884 56.3399C640.79 56.3399 626.122 71.008 626.122 89.1021C626.122 107.196 640.79 121.864 658.884 121.864Z" fill="#FFB6B6"/>
<path id="Vector_24" d="M636.635 55.7055C642.376 52.2056 648.952 50.3124 655.675 50.2237C662.398 50.1351 669.022 51.8543 674.853 55.2016C680.684 58.549 685.509 63.4015 688.823 69.2518C692.137 75.102 693.819 81.7352 693.691 88.4577C676.997 92.6491 659.459 95.8566 641.656 89.4602L637.452 79.1705L634.973 89.4679C629.552 91.6839 624.116 93.5589 618.68 89.4465C618.458 82.7429 620 76.0985 623.151 70.1775C626.301 64.2565 630.951 59.2662 636.635 55.7055V55.7055Z" fill="#2F2E41"/>
<path id="Vector_25" d="M746.985 188.871C727.332 211.233 699.673 224.97 669.979 227.116C640.286 229.262 610.939 219.645 588.275 200.341L598.005 173.191C600.204 168.368 603.674 164.236 608.043 161.235C612.412 158.235 617.515 156.481 622.805 156.161L628.995 155.781L643.755 143.051C643.755 143.051 683.525 141.631 682.935 140.951L707.025 155.441L707.005 155.341L716.475 155.921C721.766 156.24 726.869 157.993 731.238 160.994C735.608 163.994 739.077 168.128 741.275 172.951L746.985 188.871Z" fill="#44C4FF"/>
</g>
<g id="Num6">
<path id="Vector_26" d="M662.88 487.411C725.531 487.411 776.32 436.622 776.32 373.971C776.32 311.319 725.531 260.531 662.88 260.531C600.229 260.531 549.44 311.319 549.44 373.971C549.44 436.622 600.229 487.411 662.88 487.411Z" fill="#F2F2F2"/>
<path id="Vector_27" d="M659.749 388.023C679.748 388.023 695.96 371.811 695.96 351.812C695.96 331.813 679.748 315.601 659.749 315.601C639.75 315.601 623.538 331.813 623.538 351.812C623.538 371.811 639.75 388.023 659.749 388.023Z" fill="#FFB6B6"/>
<path id="Vector_28" d="M747.985 449.871C728.332 472.233 700.673 485.97 670.979 488.116C641.286 490.262 611.939 480.645 589.275 461.341L599.005 434.191C601.204 429.368 604.674 425.236 609.043 422.236C613.412 419.235 618.515 417.481 623.805 417.161L629.995 416.781L644.755 404.051C644.755 404.051 684.525 402.631 683.935 401.951L708.025 416.441L708.005 416.341L717.475 416.921C722.766 417.24 727.869 418.993 732.238 421.994C736.608 424.994 740.077 429.128 742.275 433.951L747.985 449.871Z" fill="#44C4FF"/>
<path id="Vector_29" d="M697.94 329.355C694.88 318.402 687.928 308.943 678.388 302.753C670.786 297.891 661.299 295.408 652.687 297.98C644.074 300.551 636.943 309.004 637.507 318.136C634.398 317.078 630.864 318.486 628.588 320.89C626.312 323.295 625.089 326.53 624.212 329.75C621.448 339.989 621.632 350.8 624.74 360.94L624.569 362.395C628.771 361.7 631.959 358.095 633.94 354.253C635.922 350.412 637.063 346.151 639.211 342.403C641.359 338.656 644.926 335.314 649.181 335.197L648.806 341.701C652.467 339.815 656.129 337.929 659.79 336.042C658.919 338.126 658.048 340.209 657.177 342.292C660.374 340.955 663.572 339.619 666.769 338.283C666.412 340.286 666.054 342.289 665.697 344.292C668.868 337.075 678.674 333.904 685.344 337.939C689.219 340.283 691.76 344.46 693.097 348.846C694.434 353.232 694.699 357.871 694.954 362.457C699.894 352.14 700.954 340.389 697.94 329.355V329.355Z" fill="#2F2E41"/>
</g>
<g id="Num8">
<path id="Vector_30" d="M389.59 764.051C452.241 764.051 503.03 713.262 503.03 650.611C503.03 587.959 452.241 537.171 389.59 537.171C326.939 537.171 276.15 587.959 276.15 650.611C276.15 713.262 326.939 764.051 389.59 764.051Z" fill="#F2F2F2"/>
<path id="ab6171fa-7d69-4734-b81c-8dff60f9761b" d="M387.093 662.377C406.1 662.377 421.508 646.969 421.508 627.963C421.508 608.956 406.1 593.548 387.093 593.548C368.086 593.548 352.678 608.956 352.678 627.963C352.678 646.969 368.086 662.377 387.093 662.377Z" fill="#9E616A"/>
<path id="Vector_31" d="M473.235 725.51C453.582 747.872 425.923 761.609 396.229 763.755C366.536 765.901 337.189 756.284 314.525 736.98L324.255 709.83C326.454 705.008 329.924 700.875 334.293 697.875C338.661 694.875 343.765 693.12 349.055 692.8L355.245 692.42L370.005 679.69C370.005 679.69 409.775 678.27 409.185 677.59L433.275 692.08L433.255 691.98L442.725 692.56C448.015 692.879 453.119 694.633 457.488 697.633C461.857 700.633 465.327 704.767 467.525 709.59L473.235 725.51Z" fill="#44C4FF"/>
<path id="Vector_32" d="M355.823 643.873C355.755 643.685 355.694 643.495 355.627 643.306C355.494 643.423 355.367 643.543 355.224 643.652L355.823 643.873Z" fill="#2F2E41"/>
<path id="Vector_33" d="M428.318 615.719C428.142 612.227 427.227 608.812 425.634 605.7C424.042 602.587 421.808 599.847 419.079 597.66C417.073 596.074 414.753 594.735 413.425 592.55C412.668 591.003 412.026 589.402 411.505 587.76C408.863 581.472 401.334 578.13 394.58 579.082C387.826 580.034 381.981 584.577 378.044 590.147C376.104 589.218 373.938 588.863 371.803 589.126C369.669 589.39 367.654 590.259 365.998 591.632C364.342 593.004 363.114 594.823 362.459 596.872C361.804 598.921 361.751 601.114 362.304 603.193C358.806 600.375 353.149 602.629 350.966 606.554C348.782 610.479 349.129 615.282 349.778 619.726C350.954 627.758 352.913 635.655 355.627 643.306C359.032 640.307 358.823 634.846 358.407 630.229C357.974 625.433 358.233 619.577 362.427 617.21C366.479 614.924 371.398 617.434 375.865 618.733C379.398 619.733 383.105 619.956 386.732 619.385C390.359 618.815 393.819 617.465 396.874 615.428C399.201 613.853 401.273 611.881 403.782 610.615C406.291 609.35 409.483 608.91 411.819 610.472C413.952 611.899 414.82 614.56 415.546 617.021C417.266 622.855 418.986 628.688 420.706 634.522C423.232 632.104 425.216 629.178 426.528 625.937C427.84 622.696 428.45 619.213 428.318 615.719V615.719Z" fill="#2F2E41"/>
</g>
<g id="Num4">
<path id="Vector_34" d="M113.44 487.411C176.091 487.411 226.88 436.622 226.88 373.971C226.88 311.319 176.091 260.531 113.44 260.531C50.7888 260.531 0 311.319 0 373.971C0 436.622 50.7888 487.411 113.44 487.411Z" fill="#F2F2F2"/>
<path id="Vector_35" d="M114.454 378.7C139.437 378.7 159.69 358.447 159.69 333.464C159.69 308.481 139.437 288.228 114.454 288.228C89.4703 288.228 69.2173 308.481 69.2173 333.464C69.2173 358.447 89.4703 378.7 114.454 378.7Z" fill="#2F2E41"/>
<path id="Vector_36" d="M114.472 384.643C136.791 384.643 154.883 366.55 154.883 344.231C154.883 321.912 136.791 303.82 114.472 303.82C92.1533 303.82 74.0605 321.912 74.0605 344.231C74.0605 366.55 92.1533 384.643 114.472 384.643Z" fill="#FFB8B8"/>
<path id="Vector_37" d="M198.235 448.51C178.582 470.872 150.923 484.609 121.229 486.755C91.5357 488.901 62.1891 479.284 39.5248 459.98L49.2548 432.83C51.4536 428.008 54.9235 423.875 59.2925 420.875C63.6614 417.875 68.7646 416.12 74.0548 415.8L80.2448 415.42L95.0048 402.69C95.0048 402.69 134.775 401.27 134.185 400.59L158.275 415.08L158.255 414.98L167.725 415.56C173.015 415.879 178.119 417.633 182.488 420.633C186.857 423.633 190.327 427.767 192.525 432.59L198.235 448.51Z" fill="#44C4FF"/>
<path id="Vector_38" d="M157.107 330.059C157.39 327.041 157.52 324.012 157.496 320.982C157.661 314.988 156.563 309.028 154.273 303.487C151.457 297.351 146.435 292.5 140.207 289.898C134.033 287.407 127.134 287.413 120.964 289.914C115.394 286.395 109.206 283.605 102.688 283.26C96.1703 282.914 89.2793 285.332 85.2628 290.655C84.3659 292.06 83.3472 293.383 82.2185 294.61C78.99 297.6 74.0834 297.169 69.7921 296.557C71.7168 298.207 73.6421 299.857 75.5678 301.506C73.2379 302.115 70.9078 302.724 68.5775 303.332C71.2967 304.981 74.0155 306.63 76.7342 308.279C68.8408 313.017 65.2532 323.358 66.2009 332.75C67.0974 341.641 71.3902 349.772 76.5219 356.999C78.5689 352.679 78.1279 347.51 78.0941 342.644C78.0753 341.066 78.1716 339.489 78.3822 337.925C95.7248 342.082 113.846 344.75 132.222 338.147L135.91 329.122C136.428 329.175 136.946 329.225 137.463 329.28L139.6 338.156C144.444 340.136 149.298 341.866 154.154 340.048C154.39 341.419 154.532 342.818 154.642 344.163C155.058 342.554 155.42 340.934 155.746 339.307C156.388 338.962 157.002 338.57 157.584 338.132C157.702 335.432 157.542 332.726 157.107 330.059V330.059Z" fill="#2F2E41"/>
</g>
</g>
<defs>
<clipPath id="clip0_2_2">
<rect width="776.32" height="764.051" fill="white"/>
</clipPath>
</defs>
</svg>
